<?xml version="1.0" encoding="utf-8"?>
<!-- Generator: Adobe Illustrator 16.0.0, SVG Export Plug-In . SVG Version: 6.00 Build 0)  -->
<!DOCTYPE svg PUBLIC "-//W3C//DTD SVG 1.1//EN" "http://www.w3.org/Graphics/SVG/1.1/DTD/svg11.dtd">
<svg version="1.1" id="Layer_1" xmlns="http://www.w3.org/2000/svg" xmlns:xlink="http://www.w3.org/1999/xlink" x="0px" y="0px"
	 width="50px" height="50px" viewBox="0 0 50 50" enable-background="new 0 0 50 50" xml:space="preserve">
<g>
	<path fill-rule="evenodd" clip-rule="evenodd" d="M-0.425,24.903c0-4.383,0.003-8.766-0.008-13.148
		c0-0.322,0.059-0.426,0.409-0.425c5.794,0.012,11.589,0.012,17.383,0c0.358,0,0.478,0.085,0.437,0.442
		c-0.037,0.317,0.098,0.743-0.064,0.935c-0.191,0.227-0.629,0.072-0.958,0.073c-5.042,0.006-10.083,0.007-15.125-0.003
		c-0.326-0.001-0.426,0.064-0.424,0.411c0.014,3.348,0.014,6.695,0,10.043c-0.001,0.348,0.107,0.414,0.43,0.413
		c4.907-0.01,9.814-0.004,14.721-0.015c0.322,0,0.469,0.056,0.422,0.409c-0.044,0.33,0.135,0.761-0.065,0.972
		c-0.203,0.214-0.635,0.064-0.966,0.064c-4.692,0.005-9.384,0.008-14.076-0.005c-0.364-0.001-0.468,0.084-0.466,0.46
		c0.015,3.684,0.014,7.367,0,11.051C1.223,36.922,1.32,36.99,1.647,36.99c5.297-0.011,10.594-0.003,15.891-0.018
		c0.38-0.001,0.488,0.108,0.444,0.463c-0.038,0.316,0.13,0.733-0.063,0.931c-0.194,0.198-0.611,0.06-0.929,0.06
		c-5.647,0.004-11.293-0.001-16.94,0.012c-0.372,0.001-0.488-0.062-0.487-0.467C-0.419,33.615-0.425,29.259-0.425,24.903z"/>
	<path fill-rule="evenodd" clip-rule="evenodd" d="M49.126-1.647c-1.577,2.286-3.15,4.575-4.731,6.859
		c-4.377,6.324-8.755,12.647-13.142,18.964c-0.172,0.248-0.185,0.396,0,0.649c3.202,4.395,6.392,8.798,9.584,13.201
		c0.083,0.115,0.161,0.234,0.277,0.402c-0.66,0-1.26-0.003-1.859,0.002c-0.209,0.002-0.259-0.172-0.348-0.294
		c-2.462-3.39-4.92-6.781-7.378-10.173c-0.457-0.631-0.928-1.252-1.363-1.897c-0.205-0.304-0.298-0.23-0.478,0.018
		c-2.712,3.738-5.432,7.471-8.151,11.204c-0.276,0.379-0.488,0.897-0.863,1.087c-0.375,0.19-0.919,0.051-1.388,0.055
		c-0.157,0.001-0.314,0-0.531,0c0.118-0.174,0.201-0.304,0.292-0.429c3.208-4.391,6.413-8.783,9.63-13.167
		c0.184-0.249,0.189-0.398,0.008-0.649c-3.008-4.154-6.005-8.316-9.002-12.478c-0.075-0.104-0.189-0.189-0.196-0.369
		c0.58,0,1.153,0.005,1.726-0.002c0.212-0.002,0.256,0.174,0.343,0.296c2.686,3.724,5.368,7.45,8.052,11.176
		c0.323,0.448,0.323,0.449,0.661-0.009c2.746-3.73,5.451-7.492,8.25-11.183c2.458-3.243,5.021-6.407,7.539-9.604
		c0.988-1.254,1.984-2.503,2.978-3.754C49.114-1.758,49.151-1.732,49.126-1.647z"/>
	<path fill-rule="evenodd" clip-rule="evenodd" d="M6.044,52.063c-1.911-2.527-3.793-5.076-5.736-7.578
		C-5.066,37.566-9.83,30.219-14.835,23.04c-2.142-3.072-4.249-6.167-6.372-9.252c-0.064-0.094-0.131-0.186-0.267-0.377
		c0,0.254,0,0.395,0,0.536c-0.025,8.025-0.053,16.049-0.067,24.075c0,0.333-0.074,0.447-0.415,0.415
		c-0.346-0.032-0.699-0.015-1.048-0.004c-0.175,0.006-0.25-0.053-0.227-0.229c0.008-0.066,0.001-0.135,0.001-0.201
		c0-8.737,0.002-17.475-0.008-26.212c0-0.365,0.084-0.491,0.458-0.458c0.545,0.048,1.182-0.18,1.618,0.083
		c0.418,0.253,0.635,0.841,0.934,1.286c8.715,12.98,17.43,25.961,26.144,38.941c0.074,0.11,0.14,0.227,0.209,0.34
		C6.156,52.066,6.119,52.084,6.044,52.063z"/>
	<path fill-rule="evenodd" clip-rule="evenodd" d="M53.053,25.649c0,4.112-0.006,8.225,0.01,12.337
		c0.002,0.382-0.111,0.486-0.466,0.446c-0.396-0.045-0.929,0.167-1.155-0.081c-0.197-0.215-0.063-0.738-0.063-1.126
		c-0.001-7.996-0.003-15.992,0.006-23.988c0.001-0.346-0.057-0.468-0.443-0.465c-2.902,0.019-5.806,0.004-8.708,0.019
		c-0.326,0.001-0.418-0.094-0.382-0.399c0.041-0.341-0.148-0.799,0.081-0.997c0.195-0.168,0.639-0.056,0.973-0.056
		c6.424-0.001,12.848,0.002,19.271-0.01c0.355-0.001,0.482,0.081,0.433,0.438c-0.047,0.327,0.143,0.768-0.075,0.958
		c-0.185,0.163-0.612,0.056-0.933,0.056c-2.728,0.002-5.456,0.007-8.184-0.007c-0.308-0.001-0.372,0.079-0.371,0.376
		C53.057,17.316,53.053,21.483,53.053,25.649z"/>
	<path fill-rule="evenodd" clip-rule="evenodd" d="M71.019,30.507c1.129-0.005,1.891,0.444,2.156,1.209
		c0.051,0.146,0.206,0.396-0.024,0.433c-0.251,0.038-0.604,0.196-0.796-0.128c-0.405-0.69-1.267-0.937-1.968-0.541
		c-0.284,0.16-0.438,0.399-0.431,0.72c0.008,0.3,0.2,0.481,0.463,0.603c0.418,0.193,0.875,0.248,1.31,0.38
		c0.218,0.066,0.438,0.126,0.649,0.209c0.568,0.226,0.938,0.616,0.982,1.253c0.045,0.648-0.166,1.19-0.713,1.57
		c-0.786,0.544-2.237,0.546-3.027,0.01c-0.385-0.262-0.618-0.624-0.722-1.075c-0.038-0.165-0.003-0.25,0.192-0.242
		c0.344,0.014,0.64-0.047,0.871,0.393c0.354,0.673,1.799,0.695,2.295,0.109c0.312-0.369,0.233-0.833-0.188-1.101
		c-0.36-0.227-0.78-0.274-1.178-0.388c-0.271-0.077-0.545-0.141-0.809-0.235c-0.624-0.224-1.009-0.64-1.041-1.333
		c-0.035-0.735,0.275-1.264,0.931-1.597C70.34,30.568,70.733,30.504,71.019,30.507z"/>
	<path fill-rule="evenodd" clip-rule="evenodd" d="M67.672,32.986c0,0.672,0.021,1.344-0.006,2.014
		c-0.035,0.892-0.589,1.476-1.461,1.594c-0.983,0.133-1.758-0.27-2.024-1.057c-0.038-0.112-0.048-0.234-0.076-0.352
		c-0.044-0.182,0.032-0.238,0.208-0.225c0.146,0.011,0.296,0.01,0.442,0c0.159-0.012,0.218,0.041,0.265,0.208
		c0.115,0.417,0.433,0.612,0.884,0.599c0.448-0.014,0.725-0.231,0.825-0.675c0.037-0.168,0.047-0.346,0.047-0.519
		c0.004-1.194,0.011-2.39-0.004-3.584c-0.003-0.271,0.054-0.374,0.348-0.364c0.559,0.02,0.559,0.001,0.559,0.549
		c0,0.604,0,1.208,0,1.812C67.676,32.986,67.674,32.986,67.672,32.986z"/>
	<path fill-rule="evenodd" clip-rule="evenodd" fill="#020202" d="M62.445,35.354c0.337,0.001,0.581,0.239,0.591,0.576
		c0.01,0.341-0.263,0.624-0.597,0.622c-0.339-0.002-0.595-0.277-0.584-0.627C61.866,35.586,62.106,35.354,62.445,35.354z"/>
	<path fill-rule="evenodd" clip-rule="evenodd" fill="#2B2B2B" d="M49.126-1.647c-0.03-0.032-0.061-0.063-0.091-0.095
		c0.062-0.125,0.13-0.245,0.261-0.313c0.047-0.007,0.066,0.013,0.058,0.06C49.327-1.848,49.233-1.743,49.126-1.647z"/>
	<path fill-rule="evenodd" clip-rule="evenodd" fill="#3D3D3D" d="M49.354-1.996c-0.02-0.02-0.038-0.04-0.058-0.06
		c0.102-0.174,0.102-0.174,0.307-0.294C49.539-2.187,49.49-2.063,49.354-1.996z"/>
	<path fill-rule="evenodd" clip-rule="evenodd" fill="#343434" d="M6.291,52.215c0.076,0.101,0.152,0.202,0.262,0.348
		c-0.239,0.001-0.27-0.153-0.34-0.259C6.233,52.27,6.24,52.223,6.291,52.215z"/>
	<path fill-rule="evenodd" clip-rule="evenodd" fill="#1E1E1E" d="M6.291,52.215c-0.026,0.029-0.052,0.06-0.078,0.089
		c-0.056-0.08-0.112-0.16-0.168-0.24c0.027-0.027,0.054-0.055,0.08-0.082C6.18,52.06,6.235,52.137,6.291,52.215z"/>
</g>
</svg>
