<?xml version="1.0" encoding="utf-8"?>
<!-- Generator: Adobe Illustrator 16.0.0, SVG Export Plug-In . SVG Version: 6.00 Build 0)  -->
<!DOCTYPE svg PUBLIC "-//W3C//DTD SVG 1.1//EN" "http://www.w3.org/Graphics/SVG/1.1/DTD/svg11.dtd">
<svg version="1.1" id="Layer_1" xmlns="http://www.w3.org/2000/svg" xmlns:xlink="http://www.w3.org/1999/xlink" x="0px" y="0px"
	 width="100px" height="56.25px" viewBox="0 0 100 56.25" enable-background="new 0 0 100 56.25" xml:space="preserve">
<rect fill="#FFFFFF" width="100" height="56.25"/>
<g>
	<path fill-rule="evenodd" clip-rule="evenodd" fill="#FFFFFF" d="M7.515,54.142c0-17.02,0-34.038,0-51.064
		c28.361,0,56.725,0,85.102,0c0,17.017,0,34.041,0,51.064C64.257,54.142,35.888,54.142,7.515,54.142z M29.134,39.032
		c0-3.508,0-6.974,0-10.483c4.563,0,9.094,0,13.62,0c0-0.439,0-0.835,0-1.271c-4.562,0-9.094,0-13.628,0c0-3.193,0-6.344,0-9.534
		c4.851,0,9.678,0,14.509,0c0-0.436,0-0.832,0-1.234c-5.337,0-10.649,0-15.971,0c0,7.937,0,15.851,0,23.775
		c5.392,0,10.763,0,16.132,0c0-0.428,0-0.832,0-1.253C38.896,39.032,34.028,39.032,29.134,39.032z M64.182,40.306
		c-2.986-4.117-5.929-8.176-8.877-12.24c5.503-7.946,10.992-15.874,16.482-23.801c-6.015,7.399-11.891,14.903-17.429,22.728
		c-0.148-0.206-0.238-0.329-0.327-0.452c-2.34-3.25-4.68-6.5-7.022-9.749c-0.08-0.111-0.184-0.282-0.284-0.288
		c-0.521-0.029-1.043-0.013-1.633-0.013c2.812,3.901,5.574,7.732,8.343,11.575c-2.975,4.073-5.938,8.13-8.942,12.242
		c0.519,0,0.954-0.016,1.388,0.006c0.253,0.013,0.403-0.074,0.551-0.279c2.553-3.52,5.115-7.032,7.674-10.547
		c0.071-0.098,0.149-0.19,0.241-0.307c0.398,0.55,0.766,1.057,1.133,1.563c2.246,3.099,4.493,6.198,6.743,9.295
		c0.077,0.106,0.197,0.25,0.303,0.255C63.052,40.32,63.579,40.306,64.182,40.306z M9.117,40.293c0-7.309,0-14.588,0-21.868
		c0.168,0.095,0.243,0.2,0.315,0.306c3.095,4.496,6.188,8.993,9.285,13.487c1.931,2.801,3.808,5.642,5.814,8.388
		c2.794,3.826,5.686,7.581,8.537,11.366c0.258,0.343,0.519,0.683,0.778,1.024c-0.026-0.174-0.113-0.307-0.202-0.438
		c-5.05-7.522-10.099-15.045-15.149-22.568c-2.956-4.403-5.912-8.807-8.872-13.208c-0.075-0.111-0.185-0.274-0.285-0.279
		c-0.573-0.027-1.147-0.013-1.723-0.013c0,7.964,0,15.877,0,23.805C8.096,40.293,8.553,40.293,9.117,40.293z M74.678,40.292
		c0-7.523,0-15.018,0-22.546c2.817,0,5.589,0,8.368,0c0-0.43,0-0.825,0-1.24c-6.076,0-12.132,0-18.2,0c0,0.423,0,0.827,0,1.269
		c2.795,0,5.564,0,8.361,0c0,7.527,0,15.015,0,22.518C73.692,40.292,74.149,40.292,74.678,40.292z M88.593,37.213
		c0.021,0.531,0.248,0.925,0.669,1.164c0.856,0.486,1.744,0.483,2.597,0c0.521-0.296,0.704-0.806,0.666-1.393
		c-0.038-0.577-0.38-0.925-0.894-1.119c-0.264-0.1-0.542-0.159-0.813-0.241c-0.315-0.096-0.646-0.163-0.939-0.303
		c-0.42-0.198-0.462-0.673-0.141-1.003c0.363-0.374,1.588-0.434,1.883,0.292c0.035,0.089,0.172,0.17,0.274,0.188
		c0.167,0.031,0.344,0.009,0.517,0.009c-0.01-0.527-0.25-0.94-0.716-1.188c-0.752-0.4-1.524-0.396-2.271,0.01
		c-0.543,0.296-0.748,0.795-0.696,1.402c0.048,0.56,0.373,0.904,0.877,1.092c0.253,0.094,0.521,0.147,0.779,0.229
		c0.336,0.105,0.688,0.184,0.999,0.342c0.396,0.203,0.442,0.669,0.143,0.987c-0.494,0.523-1.851,0.412-2.107-0.272
		c-0.032-0.088-0.174-0.169-0.276-0.188C88.974,37.19,88.793,37.213,88.593,37.213z M84.396,37.26
		c-0.003,0.659,0.303,1.12,0.856,1.339c1.202,0.474,2.264-0.23,2.273-1.518c0.008-1.11,0.003-2.221,0.001-3.331
		c0-0.09-0.016-0.18-0.023-0.268c-0.268,0-0.507,0-0.767,0c0,0.17,0,0.312-0.001,0.452c0,1.052,0.01,2.104-0.005,3.154
		c-0.008,0.663-0.456,1.013-1.041,0.849c-0.333-0.094-0.501-0.329-0.548-0.678c-0.126,0-0.231,0-0.336,0
		C84.677,37.26,84.549,37.26,84.396,37.26z M82.932,37.605c-0.296-0.004-0.512,0.2-0.523,0.495c-0.012,0.309,0.209,0.55,0.508,0.555
		c0.295,0.006,0.532-0.236,0.527-0.539C83.438,37.821,83.227,37.609,82.932,37.605z"/>
	<path fill-rule="evenodd" clip-rule="evenodd" d="M29.134,39.032c4.894,0,9.763,0,14.662,0c0,0.421,0,0.825,0,1.253
		c-5.369,0-10.74,0-16.132,0c0-7.925,0-15.838,0-23.775c5.321,0,10.633,0,15.971,0c0,0.403,0,0.799,0,1.234
		c-4.832,0-9.659,0-14.509,0c0,3.19,0,6.341,0,9.534c4.534,0,9.066,0,13.628,0c0,0.436,0,0.831,0,1.271c-4.525,0-9.057,0-13.62,0
		C29.134,32.059,29.134,35.524,29.134,39.032z"/>
	<path fill-rule="evenodd" clip-rule="evenodd" d="M64.182,40.306c-0.603,0-1.13,0.015-1.656-0.012
		c-0.105-0.005-0.226-0.148-0.303-0.255c-2.25-3.097-4.497-6.196-6.743-9.295c-0.367-0.507-0.734-1.014-1.133-1.563
		c-0.092,0.116-0.17,0.209-0.241,0.307c-2.56,3.515-5.121,7.027-7.674,10.547c-0.148,0.205-0.298,0.292-0.551,0.279
		c-0.434-0.021-0.869-0.006-1.388-0.006c3.004-4.112,5.967-8.169,8.942-12.242c-2.769-3.842-5.531-7.673-8.343-11.575
		c0.59,0,1.113-0.016,1.633,0.013c0.1,0.006,0.204,0.177,0.284,0.288c2.342,3.249,4.683,6.499,7.022,9.749
		c0.089,0.124,0.179,0.247,0.327,0.452c5.538-7.825,11.414-15.329,17.429-22.728c-5.49,7.927-10.979,15.854-16.482,23.801
		C58.253,32.13,61.195,36.188,64.182,40.306z"/>
	<path fill-rule="evenodd" clip-rule="evenodd" d="M9.117,40.293c-0.563,0-1.021,0-1.502,0c0-7.928,0-15.84,0-23.805
		c0.576,0,1.15-0.014,1.723,0.013c0.1,0.005,0.21,0.168,0.285,0.279c2.959,4.401,5.916,8.805,8.872,13.208
		c5.05,7.523,10.1,15.046,15.149,22.568c0.089,0.132,0.176,0.265,0.202,0.438c-0.26-0.342-0.521-0.682-0.778-1.024
		c-2.851-3.785-5.742-7.54-8.537-11.366c-2.006-2.746-3.883-5.587-5.814-8.388c-3.097-4.494-6.189-8.991-9.285-13.487
		c-0.073-0.105-0.147-0.21-0.315-0.306C9.117,25.705,9.117,32.984,9.117,40.293z"/>
	<path fill-rule="evenodd" clip-rule="evenodd" d="M74.678,40.292c-0.528,0-0.985,0-1.471,0c0-7.503,0-14.991,0-22.518
		c-2.797,0-5.566,0-8.361,0c0-0.442,0-0.846,0-1.269c6.068,0,12.124,0,18.2,0c0,0.415,0,0.811,0,1.24c-2.779,0-5.551,0-8.368,0
		C74.678,25.274,74.678,32.769,74.678,40.292z"/>
	<path fill-rule="evenodd" clip-rule="evenodd" d="M88.593,37.213c0.2,0,0.381-0.022,0.551,0.008c0.103,0.019,0.244,0.1,0.276,0.188
		c0.257,0.685,1.613,0.796,2.107,0.272c0.3-0.318,0.254-0.784-0.143-0.987c-0.311-0.158-0.663-0.236-0.999-0.342
		c-0.258-0.081-0.526-0.135-0.779-0.229c-0.504-0.188-0.829-0.532-0.877-1.092c-0.052-0.607,0.153-1.106,0.696-1.402
		c0.746-0.405,1.519-0.41,2.271-0.01c0.466,0.248,0.706,0.661,0.716,1.188c-0.173,0-0.35,0.022-0.517-0.009
		c-0.103-0.019-0.239-0.1-0.274-0.188c-0.295-0.726-1.52-0.666-1.883-0.292c-0.321,0.33-0.279,0.805,0.141,1.003
		c0.294,0.14,0.624,0.207,0.939,0.303c0.271,0.082,0.549,0.142,0.813,0.241c0.514,0.194,0.855,0.542,0.894,1.119
		c0.038,0.587-0.145,1.097-0.666,1.393c-0.853,0.483-1.74,0.486-2.597,0C88.841,38.138,88.614,37.744,88.593,37.213z"/>
	<path fill-rule="evenodd" clip-rule="evenodd" d="M84.396,37.26c0.153,0,0.281,0,0.41,0c0.104,0,0.21,0,0.336,0
		c0.047,0.349,0.215,0.584,0.548,0.678c0.585,0.164,1.033-0.186,1.041-0.849c0.015-1.051,0.005-2.103,0.005-3.154
		c0.001-0.141,0.001-0.282,0.001-0.452c0.26,0,0.499,0,0.767,0c0.008,0.088,0.023,0.178,0.023,0.268
		c0.002,1.11,0.007,2.221-0.001,3.331c-0.01,1.287-1.071,1.991-2.273,1.518C84.698,38.38,84.393,37.919,84.396,37.26z"/>
	<path fill-rule="evenodd" clip-rule="evenodd" d="M82.932,37.605c0.295,0.004,0.507,0.216,0.512,0.511
		c0.005,0.303-0.232,0.545-0.527,0.539c-0.299-0.005-0.52-0.246-0.508-0.555C82.42,37.806,82.636,37.602,82.932,37.605z"/>
</g>
</svg>
