<?xml version="1.0" encoding="utf-8"?>
<!-- Generator: Adobe Illustrator 16.0.0, SVG Export Plug-In . SVG Version: 6.00 Build 0)  -->
<!DOCTYPE svg PUBLIC "-//W3C//DTD SVG 1.1//EN" "http://www.w3.org/Graphics/SVG/1.1/DTD/svg11.dtd">
<svg version="1.1" id="Layer_1" xmlns="http://www.w3.org/2000/svg" xmlns:xlink="http://www.w3.org/1999/xlink" x="0px" y="0px"
	 width="50px" height="50px" viewBox="0 0 50 50" enable-background="new 0 0 50 50" xml:space="preserve">
<g>
	<path fill-rule="evenodd" clip-rule="evenodd" fill="#3077C4" d="M0.041,45.75c0-13.806,0-27.611,0-41.417
		C0.078,4.179,0.075,4.02,0.09,3.863c0.07-0.745,0.422-1.367,0.857-1.949c0.563-0.75,1.287-1.29,2.154-1.646
		C3.46,0.121,3.837,0.096,4.214,0.063c0.04-0.003,0.083,0.011,0.119-0.021c13.792,0,27.583,0,41.375,0
		c0.169,0.036,0.342,0.036,0.513,0.051c0.742,0.065,1.361,0.415,1.938,0.849c0.834,0.625,1.417,1.438,1.749,2.429
		c0.135,0.4,0.149,0.818,0.15,1.23c0.004,13.628,0.004,27.256,0.002,40.884c0,1.753-0.89,2.997-2.295,3.93
		c-0.598,0.396-1.255,0.615-1.979,0.606c-0.028,0-0.055,0.005-0.078,0.021c-13.792,0-27.583,0-41.375,0
		c-0.155-0.037-0.313-0.034-0.47-0.049c-0.745-0.07-1.367-0.421-1.949-0.857c-0.749-0.563-1.289-1.288-1.646-2.154
		c-0.148-0.358-0.172-0.735-0.206-1.112C0.059,45.829,0.073,45.785,0.041,45.75z"/>
	<path fill-rule="evenodd" clip-rule="evenodd" fill="#FEFEFE" d="M45.708,50.042c0.335-0.096,0.686-0.126,1.014-0.25
		c1.867-0.705,2.971-2.031,3.282-4.01c0.03-0.194,0.037-0.387,0.037-0.581c0-13.439,0-26.88,0-40.32c0-2.37-1.782-4.44-4.122-4.794
		c-0.07-0.01-0.154,0.031-0.211-0.046c1.409,0,2.819,0.002,4.229-0.003c0.124,0,0.148,0.025,0.148,0.149
		c-0.003,16.569-0.003,33.139,0,49.708c0,0.125-0.024,0.15-0.148,0.149C48.527,50.04,47.117,50.042,45.708,50.042z"/>
	<path fill-rule="evenodd" clip-rule="evenodd" fill="#FEFEFE" d="M0.041,45.75c0.09,0.202,0.083,0.426,0.147,0.634
		c0.62,2.042,1.973,3.255,4.081,3.617c0.028,0.005,0.053,0.011,0.064,0.041c-1.379,0-2.757-0.002-4.136,0.003
		c-0.13,0.001-0.16-0.029-0.16-0.159C0.043,48.507,0.041,47.129,0.041,45.75z"/>
	<path fill-rule="evenodd" clip-rule="evenodd" fill="#FEFEFE" d="M4.333,0.042C4.118,0.135,3.881,0.132,3.66,0.201
		C1.637,0.828,0.439,2.178,0.082,4.269C0.077,4.297,0.071,4.322,0.041,4.333c0-1.379,0.002-2.757-0.003-4.136
		c0-0.13,0.03-0.16,0.16-0.16C1.576,0.044,2.954,0.042,4.333,0.042z"/>
	<path fill-rule="evenodd" clip-rule="evenodd" fill="#FEFEFE" d="M44.976,28.688c-0.597-0.399-1.19-0.696-1.819-0.917
		c-1.461-0.515-2.957-0.744-4.503-0.52c-0.623,0.091-1.22,0.269-1.739,0.644c-0.963,0.694-1.099,1.842-0.32,2.735
		c0.46,0.527,1.056,0.873,1.665,1.194c0.935,0.491,1.928,0.852,2.88,1.303c0.974,0.461,1.914,0.975,2.743,1.678
		c1.452,1.229,2.094,2.809,2.056,4.688c-0.012,0.584-0.057,1.165-0.206,1.732c-0.445,1.691-1.509,2.87-3.046,3.653
		c-0.982,0.501-2.037,0.76-3.122,0.903c-2.146,0.282-4.279,0.194-6.393-0.286c-0.704-0.16-1.386-0.394-2.038-0.709
		c-0.089-0.042-0.141-0.086-0.141-0.198c0.005-1.556,0.004-3.11,0.005-4.666c0-0.014,0.007-0.026,0.012-0.045
		c0.101,0.003,0.151,0.088,0.219,0.14c2.011,1.56,4.279,2.236,6.816,1.979c0.604-0.062,1.186-0.222,1.714-0.536
		c1.087-0.647,1.313-1.905,0.519-2.891c-0.44-0.546-1.021-0.912-1.629-1.239c-0.93-0.502-1.916-0.876-2.882-1.297
		c-1.113-0.483-2.159-1.078-3.049-1.919c-1.163-1.1-1.753-2.454-1.809-4.05c-0.057-1.626,0.345-3.092,1.473-4.312
		c0.878-0.949,1.973-1.539,3.19-1.918c1.687-0.525,3.421-0.609,5.171-0.522c1.364,0.068,2.704,0.267,4,0.719
		c0.186,0.065,0.239,0.147,0.238,0.338c-0.01,1.347-0.005,2.694-0.005,4.041C44.976,28.488,44.976,28.563,44.976,28.688z"/>
	<path fill-rule="evenodd" clip-rule="evenodd" fill="#FEFEFE" d="M22.776,36.712c0,2.895-0.002,5.79,0.004,8.686
		c0,0.197-0.046,0.257-0.25,0.256c-1.486-0.009-2.971-0.005-4.457-0.005c-0.271,0-0.271,0-0.271-0.268c0-5.77,0-11.539-0.001-17.308
		c0-0.333,0.041-0.285-0.288-0.286c-1.909-0.001-3.818-0.003-5.728,0.003c-0.17,0.001-0.225-0.04-0.224-0.217
		c0.008-1.194,0.007-2.389,0-3.583c-0.001-0.172,0.046-0.221,0.22-0.221c5.686,0.004,11.373,0.004,17.058,0
		c0.166,0,0.207,0.048,0.206,0.21c-0.007,1.201-0.007,2.402,0,3.603c0.001,0.164-0.043,0.208-0.207,0.207
		c-1.938-0.006-3.875,0.001-5.812-0.01c-0.221-0.001-0.257,0.066-0.256,0.267C22.778,30.936,22.776,33.823,22.776,36.712z"/>
</g>
</svg>
