<?xml version="1.0" encoding="utf-8"?>
<!-- Generator: Adobe Illustrator 16.0.0, SVG Export Plug-In . SVG Version: 6.00 Build 0)  -->
<!DOCTYPE svg PUBLIC "-//W3C//DTD SVG 1.1//EN" "http://www.w3.org/Graphics/SVG/1.1/DTD/svg11.dtd">
<svg version="1.1" id="Layer_1" xmlns="http://www.w3.org/2000/svg" xmlns:xlink="http://www.w3.org/1999/xlink" x="0px" y="0px"
	 width="49.959px" height="49.958px" viewBox="0.041 0.042 49.959 49.958" enable-background="new 0.041 0.042 49.959 49.958"
	 xml:space="preserve">
<g>
	<path fill="#3077C4" d="M45.669,0.021H4.312H0.021V50.02h4.284c0.002,0.002,0.004,0,0.007,0.002c13.786,0,27.571,0,41.357,0
		c0.001-0.002,0.003,0,0.004-0.002h4.348V0.021H45.669z"/>
	<g>
		<path fill="#FEFEFE" d="M46.865,30c-0.598-0.398-1.189-0.695-1.818-0.916c-1.463-0.516-2.957-0.744-4.504-0.521
			c-0.622,0.092-1.221,0.27-1.738,0.645c-0.963,0.693-1.1,1.842-0.318,2.734c0.459,0.527,1.055,0.873,1.664,1.195
			c0.936,0.49,1.928,0.852,2.881,1.303c0.974,0.461,1.914,0.975,2.741,1.678c1.452,1.229,2.095,2.811,2.058,4.688
			c-0.014,0.584-0.059,1.166-0.207,1.732c-0.444,1.689-1.508,2.871-3.045,3.652c-0.982,0.5-2.037,0.762-3.123,0.902
			c-2.146,0.281-4.278,0.193-6.394-0.285c-0.704-0.16-1.386-0.395-2.038-0.709c-0.089-0.043-0.141-0.086-0.141-0.199
			c0.005-1.555,0.004-3.107,0.005-4.666c0-0.014,0.007-0.023,0.013-0.045c0.102,0.004,0.15,0.088,0.219,0.143
			c2.012,1.559,4.278,2.234,6.815,1.979c0.604-0.063,1.187-0.223,1.714-0.537c1.088-0.646,1.313-1.904,0.52-2.891
			c-0.439-0.545-1.021-0.912-1.629-1.238c-0.93-0.502-1.916-0.877-2.881-1.297c-1.113-0.484-2.16-1.078-3.051-1.92
			c-1.162-1.1-1.753-2.453-1.809-4.049c-0.059-1.627,0.345-3.092,1.473-4.314c0.879-0.949,1.975-1.539,3.19-1.917
			c1.687-0.525,3.421-0.609,5.171-0.522c1.363,0.068,2.704,0.267,4,0.719c0.188,0.065,0.238,0.147,0.236,0.338
			c-0.01,1.348-0.004,2.693-0.004,4.041C46.865,29.801,46.865,29.875,46.865,30z"/>
		<path fill="#FEFEFE" d="M24.665,38.023c0,2.896-0.002,5.791,0.004,8.688c0,0.197-0.046,0.256-0.25,0.256
			c-1.486-0.01-2.971-0.006-4.457-0.006c-0.271,0-0.271,0-0.271-0.268c0-5.77,0-11.539-0.001-17.309
			c0-0.332,0.041-0.285-0.288-0.285c-1.909-0.002-3.818-0.004-5.728,0.002c-0.17,0.002-0.225-0.039-0.224-0.217
			c0.008-1.193,0.007-2.389,0-3.583c-0.001-0.172,0.046-0.221,0.22-0.221c5.686,0.004,11.373,0.004,17.058,0
			c0.166,0,0.207,0.048,0.206,0.21c-0.007,1.201-0.007,2.402,0,3.604c0.001,0.164-0.043,0.207-0.207,0.207
			c-1.938-0.006-3.875,0-5.812-0.01c-0.221-0.002-0.257,0.066-0.256,0.266C24.667,32.248,24.665,35.135,24.665,38.023z"/>
	</g>
</g>
</svg>
