<?xml version="1.0" encoding="utf-8"?>
<!-- Generator: Adobe Illustrator 16.0.0, SVG Export Plug-In . SVG Version: 6.00 Build 0)  -->
<!DOCTYPE svg PUBLIC "-//W3C//DTD SVG 1.1//EN" "http://www.w3.org/Graphics/SVG/1.1/DTD/svg11.dtd">
<svg version="1.1" id="Layer_1" xmlns="http://www.w3.org/2000/svg" xmlns:xlink="http://www.w3.org/1999/xlink" x="0px" y="0px"
	 width="50px" height="50px" viewBox="0 0 50 50" enable-background="new 0 0 50 50" xml:space="preserve">
<g>
	<path fill="#3077C4" d="M0.041,45.75c0-13.807,0-27.611,0-41.417C0.078,4.179,0.075,4.02,0.09,3.863
		c0.07-0.745,0.422-1.367,0.857-1.949c0.563-0.75,1.287-1.29,2.154-1.646C3.46,0.121,3.837,0.096,4.214,0.063
		c0.04-0.003,0.083,0.011,0.119-0.021c13.792,0,27.583,0,41.375,0c0.169,0.036,0.342,0.036,0.513,0.051
		c0.742,0.065,1.361,0.415,1.938,0.849c0.834,0.625,1.417,1.438,1.749,2.429c0.135,0.4,0.148,0.818,0.15,1.23
		c0.004,13.628,0.004,27.256,0.002,40.883c0,1.754-0.891,2.998-2.295,3.931c-0.599,0.396-1.256,0.614-1.979,0.606
		c-0.028,0-0.056,0.004-0.078,0.021c-13.792,0-27.583,0-41.375,0c-0.155-0.037-0.313-0.034-0.47-0.049
		c-0.745-0.07-1.367-0.421-1.949-0.857c-0.749-0.563-1.289-1.288-1.646-2.153c-0.148-0.358-0.172-0.735-0.206-1.112
		C0.059,45.829,0.073,45.785,0.041,45.75z"/>
	<path fill="#FEFEFE" d="M44.977,28.688c-0.598-0.398-1.19-0.695-1.819-0.916c-1.462-0.516-2.957-0.744-4.503-0.521
		c-0.623,0.091-1.221,0.269-1.739,0.644c-0.963,0.694-1.099,1.842-0.319,2.735c0.459,0.527,1.055,0.873,1.664,1.194
		c0.936,0.49,1.928,0.852,2.881,1.303c0.974,0.461,1.914,0.975,2.742,1.678c1.452,1.229,2.094,2.81,2.057,4.688
		c-0.013,0.584-0.058,1.165-0.207,1.731c-0.444,1.691-1.508,2.871-3.045,3.653c-0.982,0.501-2.037,0.761-3.123,0.903
		c-2.146,0.281-4.278,0.193-6.393-0.286c-0.704-0.16-1.386-0.394-2.038-0.709c-0.089-0.042-0.141-0.086-0.141-0.198
		c0.005-1.556,0.004-3.109,0.005-4.666c0-0.014,0.007-0.025,0.012-0.045c0.102,0.003,0.151,0.088,0.219,0.141
		c2.012,1.56,4.279,2.235,6.816,1.979c0.604-0.063,1.186-0.223,1.714-0.536c1.087-0.647,1.313-1.905,0.519-2.892
		c-0.439-0.545-1.021-0.911-1.629-1.238c-0.93-0.502-1.916-0.876-2.881-1.297c-1.113-0.483-2.16-1.078-3.05-1.919
		c-1.163-1.101-1.753-2.454-1.809-4.05c-0.058-1.627,0.345-3.092,1.473-4.313c0.878-0.949,1.974-1.539,3.19-1.918
		c1.687-0.525,3.421-0.609,5.171-0.522c1.364,0.068,2.704,0.267,4,0.719c0.187,0.065,0.239,0.147,0.237,0.338
		c-0.01,1.347-0.004,2.693-0.004,4.041C44.977,28.488,44.977,28.563,44.977,28.688z"/>
	<path fill="#FEFEFE" d="M22.776,36.712c0,2.896-0.002,5.79,0.004,8.687c0,0.197-0.046,0.256-0.25,0.256
		c-1.486-0.01-2.971-0.006-4.457-0.006c-0.271,0-0.271,0-0.271-0.268c0-5.77,0-11.539-0.001-17.308c0-0.333,0.041-0.285-0.288-0.286
		c-1.909-0.001-3.818-0.003-5.728,0.003c-0.17,0.001-0.225-0.04-0.224-0.217c0.008-1.194,0.007-2.389,0-3.583
		c-0.001-0.172,0.046-0.221,0.22-0.221c5.686,0.004,11.373,0.004,17.058,0c0.166,0,0.207,0.048,0.206,0.21
		c-0.007,1.201-0.007,2.402,0,3.603c0.001,0.164-0.043,0.208-0.207,0.207c-1.938-0.006-3.875,0.001-5.812-0.01
		c-0.221-0.002-0.257,0.066-0.256,0.267C22.778,30.936,22.776,33.823,22.776,36.712z"/>
</g>
</svg>
